<svg width="36" height="38" viewBox="0 0 36 38" fill="none" xmlns="http://www.w3.org/2000/svg">
<path fill-rule="evenodd" clip-rule="evenodd" d="M4.424 30.282C1.35 26.902 0.510002 22.626 0.884002 18.806C1.296 14.592 3.218 10.55 5.72 8.46401C9.064 5.67801 12.576 4.53401 15.624 3.97401C17.1084 3.72057 18.6032 3.53172 20.104 3.40801C20.912 3.33201 21.73 3.25601 22.516 3.06001C24.172 2.64601 25.806 1.97401 27.152 0.906014C27.768 0.416014 28.392 -0.0799858 29.222 0.0120142C29.5204 0.0452068 29.8074 0.14514 30.0619 0.304403C30.3164 0.463666 30.5317 0.678172 30.692 0.932014C37.092 11.066 36.126 21.824 30.78 28.6C28.11 31.982 24.36 34.342 19.986 35.04C16.17 35.646 12 34.968 7.798 32.768C7.4288 33.9156 7.15454 35.0915 6.978 36.284C6.90295 36.8091 6.62236 37.2829 6.19796 37.6012C5.77357 37.9194 5.24013 38.0561 4.715 37.981C4.18987 37.906 3.71607 37.6254 3.39782 37.201C3.07957 36.7766 2.94295 36.2431 3.018 35.718C3.266 33.988 3.738 32.146 4.424 30.282ZM16.344 7.90801C17.752 7.65001 19.074 7.52601 20.358 7.40001C21.406 7.30001 22.462 7.19601 23.486 6.94001C25.2105 6.51749 26.8622 5.83931 28.386 4.92801C32.742 13.162 31.526 21.196 27.64 26.124C25.544 28.78 22.662 30.564 19.36 31.088C16.394 31.56 12.96 31.04 9.3 29.036C11.524 24.502 15.16 20.156 19.894 17.79C20.3687 17.5529 20.7298 17.1369 20.8979 16.6336C21.0659 16.1302 21.0271 15.5808 20.79 15.106C20.5529 14.6313 20.1369 14.2702 19.6336 14.1021C19.1302 13.9341 18.5807 13.9729 18.106 14.21C12.89 16.818 8.894 21.328 6.296 26.138C5.014 24.038 4.63 21.596 4.866 19.194C5.204 15.738 6.786 12.784 8.28 11.536C10.936 9.32201 13.736 8.38801 16.346 7.90801H16.344Z" fill="white"/>
</svg>
