<svg width="30" height="44" viewBox="0 0 30 44" fill="none" xmlns="http://www.w3.org/2000/svg">
<path d="M4 44C2.9 44 1.95867 43.6087 1.176 42.826C0.393333 42.0433 0.00133333 41.1013 0 40V4C0 2.9 0.392 1.95867 1.176 1.176C1.96 0.393333 2.90133 0.00133333 4 0H24C25.1 0 26.042 0.392 26.826 1.176C27.61 1.96 28.0013 2.90133 28 4V10.2C28.6 10.4333 29.0833 10.8 29.45 11.3C29.8167 11.8 30 12.3667 30 13V17C30 17.6333 29.8167 18.2 29.45 18.7C29.0833 19.2 28.6 19.5667 28 19.8V40C28 41.1 27.6087 42.042 26.826 42.826C26.0433 43.61 25.1013 44.0013 24 44H4ZM4 40H24V4H4V40ZM14 10C14.5667 10 15.042 9.808 15.426 9.424C15.81 9.04 16.0013 8.56533 16 8C15.9987 7.43467 15.8067 6.96 15.424 6.576C15.0413 6.192 14.5667 6 14 6C13.4333 6 12.9587 6.192 12.576 6.576C12.1933 6.96 12.0013 7.43467 12 8C11.9987 8.56533 12.1907 9.04067 12.576 9.426C12.9613 9.81133 13.436 10.0027 14 10Z" fill="white"/>
</svg>
