<svg width="253" height="253" viewBox="0 0 253 253" fill="none" xmlns="http://www.w3.org/2000/svg">
<path fill-rule="evenodd" clip-rule="evenodd" d="M104.019 28.0944C100.389 28.0939 96.8014 28.8744 93.4998 30.3831C90.1982 31.8917 87.2598 34.0931 84.8843 36.8377C82.5087 39.5824 80.7515 42.8061 79.732 46.2899C78.7125 49.7737 78.4545 53.4361 78.9756 57.0285L81.2697 73.0755H28.1132V96.2295C40.6552 98.2419 52.0699 104.657 60.3098 114.324C68.5496 123.992 73.0755 136.279 73.0755 148.981C73.0755 161.684 68.5496 173.97 60.3098 183.638C52.0699 193.305 40.6552 199.72 28.1132 201.733V224.887H51.2672C53.2796 212.345 59.6948 200.93 69.3622 192.69C79.0295 184.45 91.3164 179.924 104.019 179.924C116.721 179.924 129.008 184.45 138.676 192.69C148.343 200.93 154.758 212.345 156.77 224.887H179.924V171.73L195.972 174.024C197.156 174.197 198.367 174.283 199.604 174.283C203.078 174.28 206.514 173.561 209.698 172.172C212.882 170.782 215.746 168.752 218.112 166.208C220.477 163.663 222.293 160.659 223.446 157.382C224.6 154.105 225.066 150.626 224.816 147.16C224.566 143.695 223.605 140.319 221.993 137.241C220.381 134.164 218.153 131.451 215.447 129.273C212.741 127.094 209.615 125.496 206.265 124.578C202.914 123.66 199.41 123.442 195.972 123.938L179.924 126.232V73.0755H126.768L129.062 57.0285C129.583 53.4361 129.325 49.7737 128.306 46.2899C127.286 42.8061 125.529 39.5824 123.153 36.8377C120.778 34.0931 117.84 31.8917 114.538 30.3831C111.236 28.8744 107.649 28.0939 104.019 28.0944ZM51.2672 44.9623C53.2796 32.4202 59.6948 21.0055 69.3622 12.7657C79.0295 4.52584 91.3164 0 104.019 0C116.721 0 129.008 4.52584 138.676 12.7657C148.343 21.0055 154.758 32.4202 156.77 44.9623H208.038V96.2295C220.58 98.2419 231.994 104.657 240.234 114.324C248.474 123.992 253 136.279 253 148.981C253 161.684 248.474 173.97 240.234 183.638C231.994 193.305 220.58 199.72 208.038 201.733V253H126.768L129.062 236.953C129.579 233.362 129.319 229.703 128.297 226.222C127.276 222.741 125.518 219.52 123.143 216.778C120.768 214.036 117.831 211.837 114.531 210.33C111.232 208.823 107.646 208.043 104.019 208.043C100.391 208.043 96.806 208.823 93.5063 210.33C90.2066 211.837 87.2696 214.036 84.8944 216.778C82.5192 219.52 80.7615 222.741 79.7402 226.222C78.719 229.703 78.4582 233.362 78.9756 236.953L81.2697 253H0V171.73L16.047 174.024C17.2315 174.197 18.4423 174.283 19.6792 174.283C23.1533 174.28 26.5895 173.561 29.7737 172.172C32.9579 170.782 35.8219 168.752 38.1872 166.208C40.5525 163.663 42.3685 160.659 43.522 157.382C44.6755 154.105 45.1417 150.626 44.8917 147.16C44.6417 143.695 43.6808 140.319 42.0689 137.241C40.457 134.164 38.2286 131.451 35.5225 129.273C32.8164 127.094 29.6907 125.496 26.34 124.578C22.9894 123.66 19.4856 123.442 16.047 123.938L0 126.232V44.9623H51.2672Z" fill="white"/>
</svg>
