<svg width="36" height="36" viewBox="0 0 36 36" fill="none" xmlns="http://www.w3.org/2000/svg">
<path d="M18 7.5H36M0 7.5H7.5M7.5 7.5C7.5 9.0913 8.13214 10.6174 9.25736 11.7426C10.3826 12.8679 11.9087 13.5 13.5 13.5C15.0913 13.5 16.6174 12.8679 17.7426 11.7426C18.8679 10.6174 19.5 9.0913 19.5 7.5C19.5 5.9087 18.8679 4.38258 17.7426 3.25736C16.6174 2.13214 15.0913 1.5 13.5 1.5C11.9087 1.5 10.3826 2.13214 9.25736 3.25736C8.13214 4.38258 7.5 5.9087 7.5 7.5ZM0 28.5H18M28.5 28.5H36M28.5 28.5C28.5 30.0913 27.8679 31.6174 26.7426 32.7426C25.6174 33.8679 24.0913 34.5 22.5 34.5C20.9087 34.5 19.3826 33.8679 18.2574 32.7426C17.1321 31.6174 16.5 30.0913 16.5 28.5C16.5 26.9087 17.1321 25.3826 18.2574 24.2574C19.3826 23.1321 20.9087 22.5 22.5 22.5C24.0913 22.5 25.6174 23.1321 26.7426 24.2574C27.8679 25.3826 28.5 26.9087 28.5 28.5Z" stroke="white" stroke-width="3"/>
</svg>
