<svg width="48" height="42" viewBox="0 0 48 42" fill="none" xmlns="http://www.w3.org/2000/svg">
<path d="M4.5 2.25V37.5H45.75C46.3467 37.5 46.919 37.7371 47.341 38.159C47.7629 38.581 48 39.1533 48 39.75C48 40.3467 47.7629 40.919 47.341 41.341C46.919 41.7629 46.3467 42 45.75 42H2.25C1.65326 42 1.08097 41.7629 0.65901 41.341C0.237053 40.919 0 40.3467 0 39.75L0 2.25C0 1.65326 0.237053 1.08097 0.65901 0.65901C1.08097 0.237053 1.65326 0 2.25 0C2.84674 0 3.41903 0.237053 3.84099 0.65901C4.26295 1.08097 4.5 1.65326 4.5 2.25ZM47.34 9.84L31.59 25.59C31.1681 26.0114 30.5963 26.248 30 26.248C29.4037 26.248 28.8319 26.0114 28.41 25.59L21 18.18L12.84 26.34C12.4136 26.7379 11.8493 26.9547 11.2661 26.9446C10.6829 26.9346 10.1264 26.6984 9.714 26.286C9.30158 25.8736 9.06544 25.3171 9.05537 24.7339C9.04529 24.1507 9.26207 23.5864 9.66 23.16L19.41 13.41C19.8319 12.9886 20.4037 12.752 21 12.752C21.5963 12.752 22.1681 12.9886 22.59 13.41L30 20.82L44.16 6.66C44.5864 6.26207 45.1507 6.04529 45.7339 6.05537C46.3171 6.06544 46.8736 6.30158 47.286 6.714C47.6984 7.12644 47.9346 7.68291 47.9446 8.26609C47.9547 8.84926 47.7379 9.41356 47.34 9.84Z" fill="white"/>
</svg>
