<svg width="1196" height="526" viewBox="0 0 1196 526" fill="none" xmlns="http://www.w3.org/2000/svg">
<path d="M96.39 328.25L99.54 344H26.46L29.61 328.25H96.39ZM105 302H21V312.5H105V302ZM105 317.75H21L15.75 344V354.5H21V386H73.5V354.5H94.5V386H105V354.5H110.25V344L105 317.75ZM31.5 375.5V354.5H63V375.5H31.5Z" fill="white"/>
<path d="M156.5 456.25C160.488 456.25 163.75 452.988 163.75 449V412.75C163.75 408.762 160.488 405.5 156.5 405.5H98.5C94.5125 405.5 91.25 408.762 91.25 412.75V449C91.25 452.988 94.5125 456.25 98.5 456.25H84V463.5H171V456.25H156.5ZM98.5 412.75H156.5V449H98.5V412.75Z" fill="white"/>
<path d="M408.667 300.25V295M426.517 375.85L443.317 361.15C444.316 360.185 445.496 359.426 446.789 358.917C448.082 358.408 449.463 358.158 450.852 358.182C452.242 358.207 453.613 358.505 454.887 359.059C456.161 359.613 457.314 360.413 458.279 361.412C459.244 362.412 460.003 363.592 460.512 364.885C461.022 366.178 461.271 367.559 461.247 368.948C461.222 370.338 460.925 371.709 460.37 372.983C459.816 374.257 459.016 375.41 458.017 376.375L439.117 393.7C435.442 397.9 430.192 400 424.417 400H403.417C397.642 400 392.392 397.9 388.717 393.7L381.881 386.014C381.389 385.46 380.785 385.016 380.109 384.712C379.433 384.408 378.701 384.251 377.959 384.25H371.917" stroke="white" stroke-width="10.5" stroke-linecap="round" stroke-linejoin="round"/>
<path d="M356.167 358H419.167C421.951 358 424.622 359.106 426.591 361.075C428.56 363.045 429.667 365.715 429.667 368.5C429.667 371.285 428.56 373.955 426.591 375.925C424.622 377.894 421.951 379 419.167 379H408.667M366.667 337H450.667M371.917 337C371.917 327.253 375.789 317.906 382.681 311.014C389.572 304.122 398.92 300.25 408.667 300.25C418.413 300.25 427.761 304.122 434.653 311.014C441.545 317.906 445.417 327.253 445.417 337" stroke="white" stroke-width="10.5" stroke-linecap="round" stroke-linejoin="round"/>
<path d="M371.917 358V389.5C371.917 390.892 371.364 392.228 370.379 393.212C369.394 394.197 368.059 394.75 366.667 394.75H356.167" stroke="white" stroke-width="10.5" stroke-linecap="round" stroke-linejoin="round"/>
<path d="M457 471.5C455.35 471.5 453.938 470.913 452.764 469.739C451.59 468.565 451.002 467.152 451 465.5V411.5C451 409.85 451.588 408.438 452.764 407.264C453.94 406.09 455.352 405.502 457 405.5H487C488.65 405.5 490.063 406.088 491.239 407.264C492.415 408.44 493.002 409.852 493 411.5V420.8C493.9 421.15 494.625 421.7 495.175 422.45C495.725 423.2 496 424.05 496 425V431C496 431.95 495.725 432.8 495.175 433.55C494.625 434.3 493.9 434.85 493 435.2V465.5C493 467.15 492.413 468.563 491.239 469.739C490.065 470.915 488.652 471.502 487 471.5H457ZM457 465.5H487V411.5H457V465.5ZM472 420.5C472.85 420.5 473.563 420.212 474.139 419.636C474.715 419.06 475.002 418.348 475 417.5C474.998 416.652 474.71 415.94 474.136 415.364C473.562 414.788 472.85 414.5 472 414.5C471.15 414.5 470.438 414.788 469.864 415.364C469.29 415.94 469.002 416.652 469 417.5C468.998 418.348 469.286 419.061 469.864 419.639C470.442 420.217 471.154 420.504 472 420.5Z" fill="white"/>
<path d="M729.917 355.5H740.417V329.25H729.917V355.5ZM708.917 347.625C704.892 345.613 701.698 342.704 699.335 338.9C696.973 335.095 695.792 330.96 695.792 326.494C695.792 319.931 698.046 314.375 702.554 309.825C707.062 305.275 712.595 303 719.154 303C720.204 303 721.277 303.088 722.372 303.263C723.468 303.438 724.539 303.656 725.585 303.919C727.773 300.331 730.617 297.531 734.117 295.519C737.617 293.506 741.467 292.5 745.667 292.5C749.867 292.5 753.717 293.506 757.217 295.519C760.717 297.531 763.56 300.331 765.748 303.919C766.798 303.656 767.848 303.438 768.898 303.263C769.948 303.088 771.042 303 772.179 303C778.742 303 784.277 305.275 788.785 309.825C793.293 314.375 795.545 319.931 795.542 326.494C795.542 330.956 794.36 335.092 791.998 338.9C789.635 342.708 786.442 345.616 782.417 347.625V376.5H708.917V347.625ZM750.917 355.5H761.417V329.25H750.917V355.5ZM719.417 366H771.917V341.194L777.692 338.306C779.967 337.169 781.76 335.571 783.073 333.513C784.385 331.455 785.042 329.159 785.042 326.625C785.042 322.95 783.796 319.844 781.304 317.306C778.812 314.769 775.77 313.5 772.179 313.5C771.217 313.5 770.342 313.588 769.554 313.763C768.767 313.938 767.935 314.156 767.06 314.419L760.892 316.125L756.823 309.3C755.598 307.287 754 305.733 752.03 304.638C750.059 303.542 747.938 302.997 745.667 303C743.395 303.003 741.272 303.551 739.298 304.643C737.324 305.735 735.728 307.287 734.51 309.3L730.442 316.125L724.142 314.419C723.267 314.244 722.413 314.048 721.58 313.831C720.747 313.614 719.896 313.503 719.028 313.5C715.437 313.5 712.417 314.769 709.967 317.306C707.517 319.844 706.292 322.95 706.292 326.625C706.292 329.162 706.948 331.46 708.26 333.518C709.573 335.576 711.367 337.172 713.642 338.306L719.417 341.194V366ZM708.917 376.5H719.417V387H771.917V376.5H782.417V397.5H708.917V376.5Z" fill="white"/>
<path d="M840.639 408.932C840.639 407.149 839.196 405.705 837.417 405.705H798.75C796.97 405.705 795.528 407.149 795.528 408.932V460.568C795.528 462.351 796.97 463.795 798.75 463.795H837.417C839.196 463.795 840.639 462.351 840.639 460.568V408.932ZM847.083 460.568C847.083 465.915 842.755 470.25 837.417 470.25H798.75C793.411 470.25 789.083 465.915 789.083 460.568V408.932C789.083 403.585 793.411 399.25 798.75 399.25H837.417C842.755 399.25 847.083 403.585 847.083 408.932V460.568Z" fill="white"/>
<path d="M818.098 451.25L818.252 451.255C819.829 451.348 821.083 452.877 821.083 454.75C821.083 456.623 819.829 458.152 818.252 458.245L818.098 458.25H818.068C816.42 458.25 815.083 456.683 815.083 454.75C815.083 452.817 816.42 451.25 818.068 451.25H818.098Z" fill="white"/>
<path d="M1092 305.5C1097.57 305.5 1102.91 307.712 1106.85 311.651C1110.79 315.589 1113 320.93 1113 326.5C1113 332.07 1110.79 337.411 1106.85 341.349C1102.91 345.288 1097.57 347.5 1092 347.5C1086.43 347.5 1081.09 345.288 1077.15 341.349C1073.21 337.411 1071 332.07 1071 326.5C1071 320.93 1073.21 315.589 1077.15 311.651C1081.09 307.712 1086.43 305.5 1092 305.5ZM1092 316C1089.22 316 1086.54 317.106 1084.58 319.075C1082.61 321.045 1081.5 323.715 1081.5 326.5C1081.5 329.285 1082.61 331.955 1084.58 333.925C1086.54 335.894 1089.22 337 1092 337C1094.78 337 1097.46 335.894 1099.42 333.925C1101.39 331.955 1102.5 329.285 1102.5 326.5C1102.5 323.715 1101.39 321.045 1099.42 319.075C1097.46 317.106 1094.78 316 1092 316ZM1092 352.75C1106.02 352.75 1134 359.732 1134 373.75V389.5H1050V373.75C1050 359.732 1077.98 352.75 1092 352.75ZM1092 362.725C1076.41 362.725 1059.98 370.39 1059.98 373.75V379.525H1124.03V373.75C1124.03 370.39 1107.59 362.725 1092 362.725Z" fill="white"/>
<path d="M1145 471.5C1143.35 471.5 1141.94 470.913 1140.76 469.739C1139.59 468.565 1139 467.152 1139 465.5V411.5C1139 409.85 1139.59 408.438 1140.76 407.264C1141.94 406.09 1143.35 405.502 1145 405.5H1175C1176.65 405.5 1178.06 406.088 1179.24 407.264C1180.42 408.44 1181 409.852 1181 411.5V420.8C1181.9 421.15 1182.63 421.7 1183.18 422.45C1183.73 423.2 1184 424.05 1184 425V431C1184 431.95 1183.73 432.8 1183.18 433.55C1182.63 434.3 1181.9 434.85 1181 435.2V465.5C1181 467.15 1180.41 468.563 1179.24 469.739C1178.07 470.915 1176.65 471.502 1175 471.5H1145ZM1145 465.5H1175V411.5H1145V465.5ZM1160 420.5C1160.85 420.5 1161.56 420.212 1162.14 419.636C1162.72 419.06 1163 418.348 1163 417.5C1163 416.652 1162.71 415.94 1162.14 415.364C1161.56 414.788 1160.85 414.5 1160 414.5C1159.15 414.5 1158.44 414.788 1157.86 415.364C1157.29 415.94 1157 416.652 1157 417.5C1157 418.348 1157.29 419.061 1157.86 419.639C1158.44 420.217 1159.15 420.504 1160 420.5Z" fill="white"/>
<ellipse cx="559" cy="70.0001" rx="31.2308" ry="31.2308" transform="rotate(-150 559 70.0001)" fill="white"/>
<path d="M514.846 70C514.846 94.3855 534.615 114.154 559 114.154C583.385 114.154 603.154 94.3855 603.154 70C603.154 62.8628 608.94 57.0769 616.077 57.0769C623.214 57.0769 629 62.8628 629 70C629 108.66 597.66 140 559 140C520.34 140 489 108.66 489 70C489 31.3401 520.34 1.7844e-05 559 1.44642e-05C566.137 1.38403e-05 571.923 5.78587 571.923 12.9231C571.923 20.0603 566.137 25.8462 559 25.8462C534.615 25.8462 514.846 45.6145 514.846 70Z" fill="white"/>
<path d="M632.708 175.333C626.01 175.333 620.287 173.015 615.541 168.377C610.794 163.74 608.42 158.072 608.417 151.373C608.417 145.631 610.147 140.515 613.606 136.025C617.066 131.535 621.593 128.664 627.188 127.413C629.028 120.64 632.708 115.156 638.229 110.96C643.75 106.765 650.007 104.667 657 104.667C665.613 104.667 672.919 107.667 678.92 113.668C684.921 119.669 687.92 126.974 687.917 135.583C692.996 136.172 697.211 138.363 700.562 142.155C703.912 145.948 705.586 150.382 705.583 155.458C705.583 160.979 703.652 165.673 699.789 169.539C695.926 173.405 691.232 175.336 685.708 175.333H632.708ZM632.708 166.5H685.708C688.8 166.5 691.413 165.433 693.548 163.298C695.683 161.163 696.75 158.55 696.75 155.458C696.75 152.367 695.683 149.754 693.548 147.619C691.413 145.484 688.8 144.417 685.708 144.417H679.083V135.583C679.083 129.474 676.929 124.265 672.622 119.957C668.314 115.65 663.107 113.497 657 113.5C650.893 113.503 645.686 115.657 641.378 119.962C637.071 124.266 634.917 129.474 634.917 135.583H632.708C628.439 135.583 624.795 137.092 621.777 140.11C618.759 143.129 617.25 146.772 617.25 151.042C617.25 155.311 618.759 158.955 621.777 161.973C624.795 164.991 628.439 166.5 632.708 166.5Z" fill="white"/>
<line x1="103.077" y1="268.738" x2="466.738" y2="110.923" stroke="white" stroke-opacity="0.3" stroke-width="8" stroke-linecap="round" stroke-dasharray="16 16"/>
<line x1="408.58" y1="261.359" x2="490.359" y2="166.42" stroke="white" stroke-opacity="0.3" stroke-width="8" stroke-linecap="round" stroke-dasharray="16 16"/>
<line x1="740.563" y1="265.439" x2="708.439" y2="207.437" stroke="white" stroke-opacity="0.3" stroke-width="8" stroke-linecap="round" stroke-dasharray="16 16"/>
<line x1="1090.72" y1="276.04" x2="734.04" y2="118.276" stroke="white" stroke-opacity="0.3" stroke-width="8" stroke-linecap="round" stroke-dasharray="16 16"/>
<path d="M35.52 520H23.7V503.8H35.52V506.76H27.08V510.16H34.86V513.04H27.08V517.04H35.52V520ZM38.7113 520V511.28H37.0713V508H40.4313V509.96H41.2713C41.7379 509.267 42.3246 508.733 43.0313 508.36C43.7379 507.973 44.6179 507.78 45.6712 507.78C47.3379 507.78 48.6246 508.24 49.5313 509.16C50.4513 510.067 50.9113 511.287 50.9113 512.82V520H47.5913V513.44C47.5913 512.56 47.3513 511.893 46.8713 511.44C46.4046 510.973 45.7179 510.74 44.8112 510.74C43.9046 510.74 43.2112 510.973 42.7312 511.44C42.2646 511.893 42.0313 512.56 42.0313 513.44V520H38.7113ZM57.2606 520C56.4073 520 55.7406 519.787 55.2606 519.36C54.794 518.92 54.5606 518.253 54.5606 517.36V510.6H52.5006V508H54.6006V504.4H57.8406V508H60.6206V510.6H57.8806V517.4H60.9006V520H57.2606ZM63.735 520V511.28H62.095V508H65.455V510.36H66.295C66.615 509.52 67.1217 508.893 67.815 508.48C68.5083 508.067 69.2883 507.86 70.155 507.86H71.175V510.74H70.015C68.975 510.74 68.2083 511.033 67.715 511.62C67.235 512.207 66.995 512.98 66.995 513.94V520H63.735ZM78.0947 520.24C76.8014 520.24 75.6747 519.987 74.7147 519.48C73.7547 518.96 73.0147 518.233 72.4947 517.3C71.9747 516.353 71.7147 515.24 71.7147 513.96C71.7147 512.68 71.968 511.58 72.4747 510.66C72.9814 509.727 73.7014 509.013 74.6347 508.52C75.5814 508.013 76.6947 507.76 77.9747 507.76C79.228 507.76 80.3014 508 81.1947 508.48C82.1014 508.96 82.7947 509.647 83.2747 510.54C83.7547 511.433 83.9947 512.5 83.9947 513.74V514.86H74.8947C75.028 515.753 75.368 516.433 75.9147 516.9C76.4614 517.367 77.1814 517.6 78.0747 517.6C78.7814 517.6 79.3414 517.48 79.7547 517.24C80.168 517 80.4614 516.633 80.6347 516.14H83.9547C83.688 517.42 83.0414 518.427 82.0147 519.16C80.988 519.88 79.6814 520.24 78.0947 520.24ZM74.9747 512.66H80.8147C80.708 511.9 80.4147 511.333 79.9347 510.96C79.4547 510.573 78.808 510.38 77.9947 510.38C77.1814 510.38 76.5147 510.573 75.9947 510.96C75.488 511.347 75.148 511.913 74.9747 512.66ZM86.8284 524.8V511.28H85.1884V508H88.5484V509.96H89.3884C89.8151 509.267 90.3818 508.727 91.0884 508.34C91.8084 507.953 92.6751 507.76 93.6884 507.76C94.9284 507.76 95.9751 508.02 96.8284 508.54C97.6818 509.06 98.3284 509.787 98.7684 510.72C99.2084 511.653 99.4284 512.747 99.4284 514C99.4284 515.253 99.2151 516.353 98.7884 517.3C98.3618 518.233 97.7418 518.96 96.9284 519.48C96.1151 519.987 95.1284 520.24 93.9684 520.24C93.0884 520.24 92.3351 520.08 91.7084 519.76C91.0818 519.427 90.5884 518.96 90.2284 518.36H90.1484V524.8H86.8284ZM93.0684 517.36C94.0818 517.36 94.8418 517.06 95.3484 516.46C95.8551 515.86 96.1084 515.04 96.1084 514C96.1084 512.96 95.8551 512.14 95.3484 511.54C94.8418 510.94 94.0818 510.64 93.0684 510.64C92.1751 510.64 91.4618 510.893 90.9284 511.4C90.4084 511.893 90.1484 512.58 90.1484 513.46V514.54C90.1484 515.42 90.4084 516.113 90.9284 516.62C91.4618 517.113 92.1751 517.36 93.0684 517.36ZM102.454 520V511.28H100.814V508H104.174V510.36H105.014C105.334 509.52 105.84 508.893 106.534 508.48C107.227 508.067 108.007 507.86 108.874 507.86H109.894V510.74H108.734C107.694 510.74 106.927 511.033 106.434 511.62C105.954 512.207 105.714 512.98 105.714 513.94V520H102.454ZM116.813 520.24C115.52 520.24 114.393 519.987 113.433 519.48C112.473 518.96 111.733 518.233 111.213 517.3C110.693 516.353 110.433 515.24 110.433 513.96C110.433 512.68 110.687 511.58 111.193 510.66C111.7 509.727 112.42 509.013 113.353 508.52C114.3 508.013 115.413 507.76 116.693 507.76C117.947 507.76 119.02 508 119.913 508.48C120.82 508.96 121.513 509.647 121.993 510.54C122.473 511.433 122.713 512.5 122.713 513.74V514.86H113.613C113.747 515.753 114.087 516.433 114.633 516.9C115.18 517.367 115.9 517.6 116.793 517.6C117.5 517.6 118.06 517.48 118.473 517.24C118.887 517 119.18 516.633 119.353 516.14H122.673C122.407 517.42 121.76 518.427 120.733 519.16C119.707 519.88 118.4 520.24 116.813 520.24ZM113.693 512.66H119.533C119.427 511.9 119.133 511.333 118.653 510.96C118.173 510.573 117.527 510.38 116.713 510.38C115.9 510.38 115.233 510.573 114.713 510.96C114.207 511.347 113.867 511.913 113.693 512.66ZM125.547 520V511.28H123.907V508H127.267V509.96H128.107C128.574 509.267 129.161 508.733 129.867 508.36C130.574 507.973 131.454 507.78 132.507 507.78C134.174 507.78 135.461 508.24 136.367 509.16C137.287 510.067 137.747 511.287 137.747 512.82V520H134.427V513.44C134.427 512.56 134.187 511.893 133.707 511.44C133.241 510.973 132.554 510.74 131.647 510.74C130.741 510.74 130.047 510.973 129.567 511.44C129.101 511.893 128.867 512.56 128.867 513.44V520H125.547ZM146.017 520.24C144.723 520.24 143.597 519.987 142.637 519.48C141.677 518.96 140.937 518.233 140.417 517.3C139.897 516.353 139.637 515.24 139.637 513.96C139.637 512.68 139.89 511.58 140.397 510.66C140.903 509.727 141.623 509.013 142.557 508.52C143.503 508.013 144.617 507.76 145.897 507.76C147.15 507.76 148.223 508 149.117 508.48C150.023 508.96 150.717 509.647 151.197 510.54C151.677 511.433 151.917 512.5 151.917 513.74V514.86H142.817C142.95 515.753 143.29 516.433 143.837 516.9C144.383 517.367 145.103 517.6 145.997 517.6C146.703 517.6 147.263 517.48 147.677 517.24C148.09 517 148.383 516.633 148.557 516.14H151.877C151.61 517.42 150.963 518.427 149.937 519.16C148.91 519.88 147.603 520.24 146.017 520.24ZM142.897 512.66H148.737C148.63 511.9 148.337 511.333 147.857 510.96C147.377 510.573 146.73 510.38 145.917 510.38C145.103 510.38 144.437 510.573 143.917 510.96C143.41 511.347 143.07 511.913 142.897 512.66ZM158.97 520.22C157.304 520.22 156.024 519.78 155.13 518.9C154.237 518.02 153.79 516.82 153.79 515.3V508H157.11V514.66C157.11 515.527 157.33 516.18 157.77 516.62C158.224 517.047 158.897 517.26 159.79 517.26C160.71 517.26 161.417 517.027 161.91 516.56C162.417 516.093 162.67 515.427 162.67 514.56V508H165.99V516.72H167.63V520H164.27V518.04H163.43C162.95 518.747 162.364 519.287 161.67 519.66C160.99 520.033 160.09 520.22 158.97 520.22ZM170.141 520V511.28H168.501V508H171.861V510.36H172.701C173.021 509.52 173.528 508.893 174.221 508.48C174.915 508.067 175.695 507.86 176.561 507.86H177.581V510.74H176.421C175.381 510.74 174.615 511.033 174.121 511.62C173.641 512.207 173.401 512.98 173.401 513.94V520H170.141Z" fill="white"/>
<path d="M355.18 520L350.56 503.8H354.12L357.04 514.72H357.14L360.48 503.8H363.44L366.98 514.72H367.06L369.94 503.8H373.52L368.9 520H365.52L362 508.7H361.92L358.56 520H355.18ZM377.677 520.22C376.263 520.22 375.157 519.88 374.357 519.2C373.557 518.507 373.157 517.6 373.157 516.48C373.157 515.293 373.57 514.38 374.397 513.74C375.223 513.1 376.41 512.78 377.957 512.78H381.397V512.32C381.397 511.027 380.623 510.38 379.077 510.38C377.73 510.38 376.917 510.847 376.637 511.78H373.337C373.603 510.46 374.223 509.46 375.197 508.78C376.17 508.1 377.463 507.76 379.077 507.76C380.863 507.76 382.223 508.16 383.157 508.96C384.103 509.76 384.577 510.927 384.577 512.46V516.72H386.137V520H382.777V518.04H381.937C381.523 518.733 380.97 519.273 380.277 519.66C379.583 520.033 378.717 520.22 377.677 520.22ZM378.177 517.7C378.803 517.7 379.357 517.587 379.837 517.36C380.317 517.133 380.697 516.833 380.977 516.46C381.257 516.073 381.397 515.64 381.397 515.16V514.98H378.117C376.917 514.98 376.317 515.427 376.317 516.32C376.317 516.76 376.483 517.1 376.817 517.34C377.15 517.58 377.603 517.7 378.177 517.7ZM388.224 520V508H391.544V520H388.224ZM389.884 506.82C389.377 506.82 388.944 506.647 388.584 506.3C388.237 505.94 388.064 505.507 388.064 505C388.064 504.493 388.237 504.067 388.584 503.72C388.944 503.36 389.377 503.18 389.884 503.18C390.39 503.18 390.817 503.36 391.164 503.72C391.524 504.067 391.704 504.493 391.704 505C391.704 505.507 391.524 505.94 391.164 506.3C390.817 506.647 390.39 506.82 389.884 506.82ZM398.034 520C397.181 520 396.514 519.787 396.034 519.36C395.567 518.92 395.334 518.253 395.334 517.36V510.6H393.274V508H395.374V504.4H398.614V508H401.394V510.6H398.654V517.4H401.674V520H398.034ZM408.728 520.24C406.968 520.24 405.575 519.873 404.548 519.14C403.535 518.393 402.988 517.353 402.908 516.02H406.108C406.215 516.593 406.488 517.02 406.928 517.3C407.382 517.58 408.028 517.72 408.868 517.72C410.242 517.72 410.928 517.34 410.928 516.58C410.928 516.273 410.822 516.033 410.608 515.86C410.408 515.673 410.068 515.533 409.588 515.44L406.908 514.92C404.508 514.453 403.308 513.327 403.308 511.54C403.308 510.393 403.768 509.48 404.688 508.8C405.608 508.107 406.882 507.76 408.508 507.76C410.122 507.76 411.402 508.113 412.348 508.82C413.295 509.527 413.815 510.513 413.908 511.78H410.708C410.562 511.22 410.302 510.813 409.928 510.56C409.555 510.307 409.015 510.18 408.308 510.18C407.695 510.18 407.228 510.273 406.908 510.46C406.588 510.633 406.428 510.9 406.428 511.26C406.428 511.513 406.528 511.727 406.728 511.9C406.928 512.073 407.235 512.2 407.648 512.28L410.388 512.8C411.642 513.053 412.562 513.46 413.148 514.02C413.735 514.58 414.028 515.34 414.028 516.3C414.028 517.54 413.568 518.507 412.648 519.2C411.742 519.893 410.435 520.24 408.728 520.24ZM419.714 520C418.86 520 418.194 519.787 417.714 519.36C417.247 518.92 417.014 518.253 417.014 517.36V510.6H414.954V508H417.054V504.4H420.294V508H423.074V510.6H420.334V517.4H423.354V520H419.714ZM429.028 520.22C427.615 520.22 426.508 519.88 425.708 519.2C424.908 518.507 424.508 517.6 424.508 516.48C424.508 515.293 424.921 514.38 425.748 513.74C426.575 513.1 427.761 512.78 429.308 512.78H432.748V512.32C432.748 511.027 431.975 510.38 430.428 510.38C429.081 510.38 428.268 510.847 427.988 511.78H424.688C424.955 510.46 425.575 509.46 426.548 508.78C427.521 508.1 428.815 507.76 430.428 507.76C432.215 507.76 433.575 508.16 434.508 508.96C435.455 509.76 435.928 510.927 435.928 512.46V516.72H437.488V520H434.128V518.04H433.288C432.875 518.733 432.321 519.273 431.628 519.66C430.935 520.033 430.068 520.22 429.028 520.22ZM429.528 517.7C430.155 517.7 430.708 517.587 431.188 517.36C431.668 517.133 432.048 516.833 432.328 516.46C432.608 516.073 432.748 515.64 432.748 515.16V514.98H429.468C428.268 514.98 427.668 515.427 427.668 516.32C427.668 516.76 427.835 517.1 428.168 517.34C428.501 517.58 428.955 517.7 429.528 517.7ZM440.531 520V510.6H438.391V508H440.571V505.86C440.571 504.953 440.811 504.287 441.291 503.86C441.771 503.42 442.445 503.2 443.311 503.2H446.751V505.8H443.811V508H449.411V505.86C449.411 504.953 449.651 504.287 450.131 503.86C450.611 503.42 451.285 503.2 452.151 503.2H455.591V505.8H452.651V508H455.351V510.6H452.691V520H449.371V510.6H443.851V520H440.531Z" fill="white"/>
<path d="M733.7 520V503.8H737.08V510.4H737.16L744.12 503.8H748.3L741.22 510.46L748.44 520H744.4L738.82 512.54L737.08 513.94V520H733.7ZM749.95 520V508H753.27V520H749.95ZM751.61 506.82C751.104 506.82 750.67 506.647 750.31 506.3C749.964 505.94 749.79 505.507 749.79 505C749.79 504.493 749.964 504.067 750.31 503.72C750.67 503.36 751.104 503.18 751.61 503.18C752.117 503.18 752.544 503.36 752.89 503.72C753.25 504.067 753.43 504.493 753.43 505C753.43 505.507 753.25 505.94 752.89 506.3C752.544 506.647 752.117 506.82 751.61 506.82ZM759.761 520C758.907 520 758.241 519.787 757.761 519.36C757.294 518.92 757.061 518.253 757.061 517.36V510.6H755.001V508H757.101V504.4H760.341V508H763.121V510.6H760.381V517.4H763.401V520H759.761ZM770.815 520.24C769.562 520.24 768.462 519.987 767.515 519.48C766.582 518.96 765.848 518.233 765.315 517.3C764.795 516.367 764.535 515.267 764.535 514C764.535 512.733 764.795 511.633 765.315 510.7C765.835 509.767 766.568 509.047 767.515 508.54C768.462 508.02 769.562 507.76 770.815 507.76C772.402 507.76 773.708 508.16 774.735 508.96C775.762 509.76 776.408 510.86 776.675 512.26H773.335C773.162 511.74 772.862 511.34 772.435 511.06C772.008 510.78 771.468 510.64 770.815 510.64C769.922 510.64 769.202 510.933 768.655 511.52C768.122 512.107 767.855 512.933 767.855 514C767.855 515.067 768.128 515.893 768.675 516.48C769.222 517.067 769.935 517.36 770.815 517.36C772.228 517.36 773.088 516.76 773.395 515.56H776.735C776.495 517.027 775.862 518.173 774.835 519C773.808 519.827 772.468 520.24 770.815 520.24ZM778.183 520V503.2H781.503V509.72H781.583C781.969 509.08 782.489 508.6 783.143 508.28C783.796 507.947 784.569 507.78 785.463 507.78C786.969 507.78 788.163 508.24 789.043 509.16C789.936 510.067 790.383 511.287 790.383 512.82V520H787.063V513.44C787.063 512.56 786.823 511.893 786.343 511.44C785.876 510.973 785.189 510.74 784.283 510.74C783.376 510.74 782.683 510.973 782.203 511.44C781.736 511.893 781.503 512.56 781.503 513.44V520H778.183ZM798.642 520.24C797.348 520.24 796.222 519.987 795.262 519.48C794.302 518.96 793.562 518.233 793.042 517.3C792.522 516.353 792.262 515.24 792.262 513.96C792.262 512.68 792.515 511.58 793.022 510.66C793.528 509.727 794.248 509.013 795.182 508.52C796.128 508.013 797.242 507.76 798.522 507.76C799.775 507.76 800.848 508 801.742 508.48C802.648 508.96 803.342 509.647 803.822 510.54C804.302 511.433 804.542 512.5 804.542 513.74V514.86H795.442C795.575 515.753 795.915 516.433 796.462 516.9C797.008 517.367 797.728 517.6 798.622 517.6C799.328 517.6 799.888 517.48 800.302 517.24C800.715 517 801.008 516.633 801.182 516.14H804.502C804.235 517.42 803.588 518.427 802.562 519.16C801.535 519.88 800.228 520.24 798.642 520.24ZM795.522 512.66H801.362C801.255 511.9 800.962 511.333 800.482 510.96C800.002 510.573 799.355 510.38 798.542 510.38C797.728 510.38 797.062 510.573 796.542 510.96C796.035 511.347 795.695 511.913 795.522 512.66ZM807.375 520V511.28H805.735V508H809.095V509.96H809.935C810.402 509.267 810.989 508.733 811.695 508.36C812.402 507.973 813.282 507.78 814.335 507.78C816.002 507.78 817.289 508.24 818.195 509.16C819.115 510.067 819.575 511.287 819.575 512.82V520H816.255V513.44C816.255 512.56 816.015 511.893 815.535 511.44C815.069 510.973 814.382 510.74 813.475 510.74C812.569 510.74 811.875 510.973 811.395 511.44C810.929 511.893 810.695 512.56 810.695 513.44V520H807.375Z" fill="white"/>
<path d="M1078.88 520.24C1077.31 520.24 1075.92 519.893 1074.72 519.2C1073.53 518.493 1072.6 517.513 1071.92 516.26C1071.25 515.007 1070.92 513.56 1070.92 511.92C1070.92 510.24 1071.27 508.773 1071.96 507.52C1072.65 506.267 1073.63 505.293 1074.88 504.6C1076.13 503.907 1077.59 503.56 1079.26 503.56C1080.61 503.56 1081.79 503.793 1082.82 504.26C1083.85 504.713 1084.69 505.367 1085.34 506.22C1086.01 507.073 1086.43 508.093 1086.6 509.28H1083.06C1082.91 508.413 1082.51 507.747 1081.84 507.28C1081.17 506.8 1080.31 506.56 1079.26 506.56C1078.26 506.56 1077.39 506.78 1076.64 507.22C1075.91 507.647 1075.33 508.267 1074.92 509.08C1074.52 509.893 1074.32 510.847 1074.32 511.94C1074.32 513.06 1074.53 514.033 1074.94 514.86C1075.35 515.673 1075.93 516.307 1076.68 516.76C1077.43 517.2 1078.31 517.42 1079.32 517.42C1080.07 517.42 1080.74 517.3 1081.34 517.06C1081.94 516.82 1082.41 516.487 1082.76 516.06C1083.11 515.633 1083.28 515.153 1083.28 514.62V514H1079.02V511.38H1084.1C1084.93 511.38 1085.55 511.58 1085.96 511.98C1086.39 512.38 1086.6 512.973 1086.6 513.76V520H1083.48V518.12H1083.38C1083.01 518.813 1082.43 519.34 1081.66 519.7C1080.89 520.06 1079.96 520.24 1078.88 520.24ZM1094.28 520.22C1092.62 520.22 1091.34 519.78 1090.44 518.9C1089.55 518.02 1089.1 516.82 1089.1 515.3V508H1092.42V514.66C1092.42 515.527 1092.64 516.18 1093.08 516.62C1093.54 517.047 1094.21 517.26 1095.1 517.26C1096.02 517.26 1096.73 517.027 1097.22 516.56C1097.73 516.093 1097.98 515.427 1097.98 514.56V508H1101.3V516.72H1102.94V520H1099.58V518.04H1098.74C1098.26 518.747 1097.68 519.287 1096.98 519.66C1096.3 520.033 1095.4 520.22 1094.28 520.22ZM1110.53 520.24C1109.24 520.24 1108.11 519.987 1107.15 519.48C1106.19 518.96 1105.45 518.233 1104.93 517.3C1104.41 516.353 1104.15 515.24 1104.15 513.96C1104.15 512.68 1104.41 511.58 1104.91 510.66C1105.42 509.727 1106.14 509.013 1107.07 508.52C1108.02 508.013 1109.13 507.76 1110.41 507.76C1111.67 507.76 1112.74 508 1113.63 508.48C1114.54 508.96 1115.23 509.647 1115.71 510.54C1116.19 511.433 1116.43 512.5 1116.43 513.74V514.86H1107.33C1107.47 515.753 1107.81 516.433 1108.35 516.9C1108.9 517.367 1109.62 517.6 1110.51 517.6C1111.22 517.6 1111.78 517.48 1112.19 517.24C1112.61 517 1112.9 516.633 1113.07 516.14H1116.39C1116.13 517.42 1115.48 518.427 1114.45 519.16C1113.43 519.88 1112.12 520.24 1110.53 520.24ZM1107.41 512.66H1113.25C1113.15 511.9 1112.85 511.333 1112.37 510.96C1111.89 510.573 1111.25 510.38 1110.43 510.38C1109.62 510.38 1108.95 510.573 1108.43 510.96C1107.93 511.347 1107.59 511.913 1107.41 512.66ZM1123.67 520.24C1121.91 520.24 1120.51 519.873 1119.49 519.14C1118.47 518.393 1117.93 517.353 1117.85 516.02H1121.05C1121.15 516.593 1121.43 517.02 1121.87 517.3C1122.32 517.58 1122.97 517.72 1123.81 517.72C1125.18 517.72 1125.87 517.34 1125.87 516.58C1125.87 516.273 1125.76 516.033 1125.55 515.86C1125.35 515.673 1125.01 515.533 1124.53 515.44L1121.85 514.92C1119.45 514.453 1118.25 513.327 1118.25 511.54C1118.25 510.393 1118.71 509.48 1119.63 508.8C1120.55 508.107 1121.82 507.76 1123.45 507.76C1125.06 507.76 1126.34 508.113 1127.29 508.82C1128.23 509.527 1128.75 510.513 1128.85 511.78H1125.65C1125.5 511.22 1125.24 510.813 1124.87 510.56C1124.49 510.307 1123.95 510.18 1123.25 510.18C1122.63 510.18 1122.17 510.273 1121.85 510.46C1121.53 510.633 1121.37 510.9 1121.37 511.26C1121.37 511.513 1121.47 511.727 1121.67 511.9C1121.87 512.073 1122.17 512.2 1122.59 512.28L1125.33 512.8C1126.58 513.053 1127.5 513.46 1128.09 514.02C1128.67 514.58 1128.97 515.34 1128.97 516.3C1128.97 517.54 1128.51 518.507 1127.59 519.2C1126.68 519.893 1125.37 520.24 1123.67 520.24ZM1134.65 520C1133.8 520 1133.13 519.787 1132.65 519.36C1132.18 518.92 1131.95 518.253 1131.95 517.36V510.6H1129.89V508H1131.99V504.4H1135.23V508H1138.01V510.6H1135.27V517.4H1138.29V520H1134.65Z" fill="white"/>
</svg>
