<svg width="260" height="260" viewBox="0 0 260 260" fill="none" xmlns="http://www.w3.org/2000/svg">
<circle cx="130" cy="130" r="58" transform="rotate(-150 130 130)" fill="#FF0051"/>
<path d="M48 130C48 175.287 84.7127 212 130 212C175.287 212 212 175.287 212 130C212 116.745 222.745 106 236 106C249.255 106 260 116.745 260 130C260 201.797 201.797 260 130 260C58.203 260 -5.08827e-06 201.797 -1.1365e-05 130C-1.76417e-05 58.203 58.203 1.76417e-05 130 1.1365e-05C143.255 1.02062e-05 154 10.7452 154 24C154 37.2548 143.255 48 130 48C84.7126 48 48 84.7127 48 130Z" fill="#FF0051"/>
</svg>
