<svg width="168" height="60" viewBox="0 0 168 60" fill="none" xmlns="http://www.w3.org/2000/svg">
<ellipse cx="13.3708" cy="13.38" rx="13.3708" ry="13.38" transform="matrix(-0.865728 -0.500515 0.499485 -0.866322 34.8512 48.2837)" fill="white"/>
<path d="M11.0617 30C11.0617 40.4509 19.5223 48.9231 29.9588 48.9231C40.3954 48.9231 48.856 40.4509 48.856 30C48.856 26.9412 51.3322 24.4615 54.3868 24.4615C57.4414 24.4615 59.9177 26.9412 59.9177 30C59.9177 46.5685 46.5047 60 29.9588 60C13.413 60 -4.9873e-06 46.5685 -6.43378e-06 30C-7.88026e-06 13.4315 13.413 7.88585e-06 29.9588 6.43738e-06C33.0135 6.16997e-06 35.4897 2.47966 35.4897 5.53847C35.4897 8.59727 33.0135 11.0769 29.9588 11.0769C19.5223 11.0769 11.0617 19.5491 11.0617 30Z" fill="white"/>
<path d="M151.91 38.3077L148.297 27.2308H151.763L153.846 34.0246H153.938L156.372 27.2308H159.506L161.921 34.0246H162.013L164.115 27.2308H167.544L163.949 38.3077H160.373L157.957 31.8092H157.884L155.487 38.3077H151.91Z" fill="white"/>
<path d="M141.803 38.5292C140.586 38.5292 139.523 38.2954 138.614 37.8277C137.704 37.3477 136.997 36.6769 136.493 35.8154C136.002 34.9415 135.756 33.92 135.756 32.7508C135.756 31.5815 136.002 30.5661 136.493 29.7046C136.997 28.8431 137.704 28.1785 138.614 27.7108C139.523 27.2431 140.592 27.0092 141.821 27.0092C143.051 27.0092 144.108 27.2431 144.992 27.7108C145.89 28.1785 146.584 28.8431 147.076 29.7046C147.567 30.5661 147.813 31.5877 147.813 32.7692C147.813 33.9385 147.567 34.96 147.076 35.8338C146.584 36.6954 145.89 37.36 144.992 37.8277C144.095 38.2954 143.032 38.5292 141.803 38.5292ZM141.803 35.5754C142.651 35.5754 143.296 35.3231 143.739 34.8185C144.194 34.3015 144.421 33.6123 144.421 32.7508C144.421 31.8892 144.194 31.2123 143.739 30.72C143.296 30.2154 142.651 29.9631 141.803 29.9631C140.943 29.9631 140.285 30.2154 139.83 30.72C139.376 31.2123 139.148 31.8892 139.148 32.7508C139.148 33.6123 139.376 34.3015 139.83 34.8185C140.285 35.3231 140.943 35.5754 141.803 35.5754Z" fill="white"/>
<path d="M123.43 38.3077V29.8892H121.55V27.2308H123.467V25.4585C123.467 24.5477 123.701 23.8769 124.168 23.4461C124.647 23.0154 125.323 22.8 126.196 22.8H129.404V25.4585H126.786V27.2308H129.183V29.8892H126.823V38.3077H123.43ZM130.676 38.3077V22.8H134.068V38.3077H130.676Z" fill="white"/>
<path d="M112.765 38.5108C111.437 38.5108 110.399 38.1969 109.649 37.5692C108.911 36.9292 108.543 36.08 108.543 35.0215C108.543 33.9261 108.93 33.0831 109.704 32.4923C110.491 31.8892 111.609 31.5877 113.06 31.5877H116.028V31.1815C116.028 30.1723 115.389 29.6677 114.11 29.6677C112.98 29.6677 112.291 30.0492 112.046 30.8123H108.69C108.948 29.5569 109.532 28.6092 110.442 27.9692C111.351 27.3292 112.568 27.0092 114.092 27.0092C115.776 27.0092 117.06 27.3846 117.945 28.1354C118.83 28.8738 119.273 29.9569 119.273 31.3846V34.9846H120.858V38.3077H117.466V36.4615H116.691C116.31 37.1261 115.807 37.6369 115.18 37.9938C114.553 38.3385 113.748 38.5108 112.765 38.5108ZM113.281 35.9631C113.822 35.9631 114.295 35.8708 114.7 35.6861C115.118 35.5015 115.444 35.2492 115.677 34.9292C115.911 34.6092 116.028 34.2523 116.028 33.8585V33.8031H113.207C112.261 33.8031 111.787 34.1538 111.787 34.8554C111.787 35.2123 111.916 35.4892 112.175 35.6861C112.445 35.8708 112.814 35.9631 113.281 35.9631Z" fill="white"/>
<path d="M95.4189 38.3077V30.5538H93.7597V27.2308H97.1519V29.0769H97.9263C98.3687 28.4369 98.9095 27.9385 99.5486 27.5815C100.2 27.2123 101.03 27.0277 102.038 27.0277C103.611 27.0277 104.815 27.4523 105.651 28.3015C106.499 29.1508 106.923 30.2892 106.923 31.7169V38.3077H103.531V32.3815C103.531 31.6185 103.328 31.04 102.922 30.6461C102.529 30.2523 101.945 30.0554 101.171 30.0554C100.397 30.0554 99.8068 30.2523 99.4012 30.6461C99.0078 31.04 98.8112 31.6185 98.8112 32.3815V38.3077H95.4189Z" fill="white"/>
<path d="M88.8271 38.3077V27.2308H92.2194V38.3077H88.8271ZM90.5232 26.2892C90.0193 26.2892 89.5891 26.1108 89.2327 25.7538C88.8763 25.3969 88.6981 24.9662 88.6981 24.4615C88.6981 23.9569 88.8763 23.5262 89.2327 23.1692C89.5891 22.8123 90.0193 22.6338 90.5232 22.6338C91.0272 22.6338 91.4573 22.8123 91.8138 23.1692C92.1702 23.5262 92.3484 23.9569 92.3484 24.4615C92.3484 24.9662 92.1702 25.3969 91.8138 25.7538C91.4573 26.1108 91.0272 26.2892 90.5232 26.2892Z" fill="white"/>
<path d="M72.9152 38.3077V23.3538H78.9623C80.5847 23.3538 81.9859 23.6554 83.1658 24.2585C84.3457 24.8615 85.2552 25.7231 85.8943 26.8431C86.5335 27.9631 86.853 29.2923 86.853 30.8308C86.853 32.3569 86.5273 33.68 85.8759 34.8C85.2368 35.92 84.3273 36.7877 83.1473 37.4031C81.9674 38.0062 80.5724 38.3077 78.9623 38.3077H72.9152ZM76.3812 35.3538H78.9623C80.4249 35.3538 81.5249 34.9354 82.2624 34.0985C83.0121 33.2615 83.387 32.1723 83.387 30.8308C83.387 29.4769 83.0121 28.3877 82.2624 27.5631C81.5249 26.7262 80.4249 26.3077 78.9623 26.3077H76.3812V35.3538Z" fill="white"/>
</svg>
